<?xml version="1.0" encoding="UTF-8"?>
<svg version="1.1" xmlns="http://www.w3.org/2000/svg" width="500" height="500">
<path d="M0 0 C165 0 330 0 500 0 C500 165 500 330 500 500 C335 500 170 500 0 500 C0 335 0 170 0 0 Z " fill="#FEFEFE" transform="translate(0,0)"/>
<path d="M0 0 C0 0.33 0 0.66 0 1 C-1.69189453 1.16435547 -1.69189453 1.16435547 -3.41796875 1.33203125 C-15.66588446 2.55485053 -27.82690354 4.18311993 -40 6 C-35.74280364 6.97793468 -31.50261543 7.3237637 -27.15625 7.61328125 C-25.5935302 7.72519924 -24.03086932 7.83794225 -22.46826172 7.95141602 C-21.25006744 8.03928879 -21.25006744 8.03928879 -20.00726318 8.12893677 C-6.1168898 9.14588698 7.45030888 10.49392884 21.0625 13.56542969 C40.34286748 17.88990727 60.12208128 18.50587386 79.5637207 15.01025391 C88.29967306 13.48924967 97.04378628 13.60410109 105 18 C109.67609798 22.03844826 114.72259946 26.79404233 115.2734375 33.16015625 C115.48018373 41.1039824 115.34690008 47.61612536 110 54 C109.01 54.495 109.01 54.495 108 55 C108.28875 54.29875 108.5775 53.5975 108.875 52.875 C109.24625 51.92625 109.6175 50.9775 110 50 C110.556875 48.7315625 110.556875 48.7315625 111.125 47.4375 C112.74597932 41.06936695 112.93425736 34.58032985 110.6875 28.375 C109.0559648 25.77948752 109.0559648 25.77948752 106 24 C101.49717589 23.27482608 98.00714346 23.39999964 94.0625 25.75 C89.48593762 30.74261351 89.58308815 35.20054494 89.671875 41.79296875 C90.12525002 46.22416985 91.37235906 48.44495638 94 52 C94.66 52.99 95.32 53.98 96 55 C95.30668076 55.01030746 94.61336151 55.02061493 93.89903259 55.03123474 C87.29609147 55.13009036 80.69322017 55.23271169 74.09039974 55.33933926 C70.69758196 55.39400233 67.30475524 55.44731723 63.91186523 55.49731445 C44.91286952 55.74389455 44.91286952 55.74389455 25.94702148 56.79272461 C21.48267352 57.10671943 17.03546789 57.110517 12.5625 57.0625 C11.30469727 57.05573242 11.30469727 57.05573242 10.02148438 57.04882812 C8.0142897 57.03735844 6.00713326 57.01944478 4 57 C7.31734527 53.49533651 10.58273005 50.78118147 14.6875 48.25 C16.11642578 47.36054688 16.11642578 47.36054688 17.57421875 46.453125 C20.99280327 44.40527727 22.76751268 43.87236617 26.734375 43.8671875 C27.69529053 43.86525391 28.65620605 43.86332031 29.64624023 43.86132812 C31.18260132 43.8680957 31.18260132 43.8680957 32.75 43.875 C34.30279663 43.87790039 34.30279663 43.87790039 35.88696289 43.88085938 C43.63027042 43.92431025 51.28966856 44.2516836 59 45 C59 45.33 59 45.66 59 46 C57.9262915 45.99887207 56.85258301 45.99774414 55.74633789 45.99658203 C51.72579376 46.00027992 47.70643132 46.04331457 43.6862793 46.09765625 C41.95328431 46.11571668 40.22014652 46.12340297 38.48706055 46.12011719 C24.66977679 46.09523414 24.66977679 46.09523414 13 53 C12.34 53 11.68 53 11 53 C11 53.66 11 54.32 11 55 C11.96049759 54.91403061 11.96049759 54.91403061 12.94039917 54.82632446 C30.34418359 53.30035233 47.66008234 52.60760712 65.125 52.375 C67.55990732 52.33666012 69.99480341 52.29760032 72.4296875 52.2578125 C78.28635586 52.16362996 84.14309652 52.07812577 90 52 C89.71705078 51.32598145 89.43410156 50.65196289 89.14257812 49.95751953 C88.77583984 49.06661621 88.40910156 48.17571289 88.03125 47.2578125 C87.66580078 46.37754395 87.30035156 45.49727539 86.92382812 44.59033203 C85.04180445 39.31330477 85.34105595 34.93636762 87.6875 29.8125 C90.42680763 24.93729865 93.30895122 21.29640035 98.8125 19.6875 C99.864375 19.460625 100.91625 19.23375 102 19 C98.45595054 17.91153272 95.13329911 17.83314692 91.4375 17.8125 C90.30183594 17.79832031 89.16617188 17.78414062 87.99609375 17.76953125 C84.9031014 17.85173043 82.04261083 18.362518 79.015625 18.9921875 C71.81338716 20.37488389 64.61592383 20.35032616 57.3125 20.3125 C56.60013184 20.31100952 55.88776367 20.30951904 55.15380859 20.3079834 C45.52485312 20.27174772 36.49063818 19.76426926 27.0859375 17.47509766 C22.59197354 16.45154266 18.0428735 15.70810809 13.5 14.9375 C12.49146973 14.76597412 11.48293945 14.59444824 10.44384766 14.41772461 C0.17938722 12.74588015 -10.12429456 11.90416813 -20.49658203 11.23364258 C-23 11 -23 11 -25.8515625 10.49511719 C-29.37870341 9.94044584 -32.79834866 9.78682463 -36.3671875 9.68359375 C-37.04677521 9.66281265 -37.72636292 9.64203156 -38.42654419 9.62062073 C-40.57593666 9.5557637 -42.7254407 9.49654059 -44.875 9.4375 C-46.3411569 9.39425388 -47.80730294 9.35063775 -49.2734375 9.30664062 C-52.84884275 9.20014896 -56.42437037 9.09870591 -60 9 C-43.03736054 0.18809271 -18.62447532 -0.24795899 0 0 Z " fill="#454545" transform="translate(250,174)"/>
<path d="M0 0 C3.3 0 6.6 0 10 0 C11.17237387 3.26888939 12.33809988 6.53988944 13.5 9.8125 C13.83386719 10.74126953 14.16773438 11.67003906 14.51171875 12.62695312 C14.98544922 13.9659668 14.98544922 13.9659668 15.46875 15.33203125 C15.76201172 16.15421143 16.05527344 16.9763916 16.35742188 17.82348633 C17 20 17 20 17 23 C17.66 23 18.32 23 19 23 C19.226875 21.80375 19.45375 20.6075 19.6875 19.375 C21.14819347 12.7112524 23.62240483 6.37957787 26 0 C29.3 0 32.6 0 36 0 C36 11.22 36 22.44 36 34 C33.69 34 31.38 34 29 34 C28.505 24.1 28.505 24.1 28 14 C25.69 20.6 23.38 27.2 21 34 C19.02 34 17.04 34 15 34 C12.69 27.4 10.38 20.8 8 14 C7.67 20.6 7.34 27.2 7 34 C4.69 34 2.38 34 0 34 C0 22.78 0 11.56 0 0 Z " fill="#33A5B7" transform="translate(192,260)"/>
<path d="M0 0 C2.84625 -0.103125 5.6925 -0.20625 8.625 -0.3125 C9.95265381 -0.38078003 9.95265381 -0.38078003 11.30712891 -0.45043945 C15.42293333 -0.52223213 18.22671665 -0.30640592 21.55078125 2.26171875 C24 5 24 5 24.69140625 7.1328125 C24.34120172 12.54506438 24.34120172 12.54506438 22.5 15 C22.005 15.33 21.51 15.66 21 16 C21.66 16.515625 22.32 17.03125 23 17.5625 C25 20 25 20 25.4375 23.4375 C24.97354519 27.21541773 24.4168709 29.08308685 22 32 C17 34 17 34 0 34 C0 22.78 0 11.56 0 0 Z " fill="#32A5B7" transform="translate(252,260)"/>
<path d="M0 0 C2.31 0 4.62 0 7 0 C10.15164549 7.27637969 13.04466571 14.63290146 15.8125 22.0625 C16.12646729 22.89563721 16.44043457 23.72877441 16.76391602 24.5871582 C17.05451904 25.37437256 17.34512207 26.16158691 17.64453125 26.97265625 C17.90596924 27.67656494 18.16740723 28.38047363 18.43676758 29.10571289 C19 31 19 31 19 34 C16.69 34 14.38 34 12 34 C11.34 31.69 10.68 29.38 10 27 C5.71 27 1.42 27 -3 27 C-3.33 28.98 -3.66 30.96 -4 33 C-5 34 -5 34 -8.5625 34.0625 C-9.696875 34.041875 -10.83125 34.02125 -12 34 C-11.32243704 30.03174571 -10.15567637 26.44491782 -8.75 22.67578125 C-8.3065625 21.48275391 -7.863125 20.28972656 -7.40625 19.06054688 C-7.17550781 18.4455835 -6.94476563 17.83062012 -6.70703125 17.19702148 C-5.99875862 15.30919123 -5.29578724 13.41945371 -4.59375 11.52929688 C-1.15844883 2.31689765 -1.15844883 2.31689765 0 0 Z " fill="#34A6B7" transform="translate(341,260)"/>
<path d="M0 0 C1.134375 0.020625 2.26875 0.04125 3.4375 0.0625 C5.1529487 4.41993741 6.86175649 8.77989779 8.56445312 13.14233398 C9.14466309 14.62612037 9.72668376 16.10920004 10.31054688 17.59155273 C11.14930241 19.72196325 11.98152056 21.85482763 12.8125 23.98828125 C13.07498535 24.65088455 13.3374707 25.31348785 13.60791016 25.99617004 C14.71233362 28.84822234 15.4375 30.97359914 15.4375 34.0625 C13.1275 34.0625 10.8175 34.0625 8.4375 34.0625 C7.7775 31.7525 7.1175 29.4425 6.4375 27.0625 C2.1475 27.0625 -2.1425 27.0625 -6.5625 27.0625 C-7.2225 29.3725 -7.8825 31.6825 -8.5625 34.0625 C-10.8725 34.0625 -13.1825 34.0625 -15.5625 34.0625 C-14.12156016 26.56646323 -11.72786542 19.68166851 -9 12.5625 C-8.58814453 11.46679688 -8.17628906 10.37109375 -7.75195312 9.2421875 C-4.2773087 0.0750405 -4.2773087 0.0750405 0 0 Z " fill="#34A6B7" transform="translate(155.5625,259.9375)"/>
<path d="M0 0 C4.95172011 4.05140736 7.65978117 8.18836539 9.75 14.25 C10.12195709 18.71348506 10.25552308 20.49171538 7.75 24.25 C7.65203125 23.38117188 7.5540625 22.51234375 7.453125 21.6171875 C6.44826214 12.67849914 6.44826214 12.67849914 1.75 5.25 C-2.92031161 1.77015998 -6.35484012 0.63350882 -12.1796875 0.9296875 C-17.44481735 1.7442925 -20.88353446 5.35198727 -24.25 9.25 C-28.02981851 15.76692846 -28.40244783 22.66007846 -26.5703125 29.95703125 C-25.86470121 32.09066539 -25.11085637 34.17472124 -24.25 36.25 C-26.22786094 36.360051 -28.20759782 36.43649798 -30.1875 36.5 C-31.28964844 36.54640625 -32.39179688 36.5928125 -33.52734375 36.640625 C-42.87568303 35.65968699 -50.3933316 29.74845923 -58 24.625 C-60.01288422 23.27455163 -62.02841653 21.92803998 -64.046875 20.5859375 C-64.92698242 19.99345215 -65.80708984 19.4009668 -66.71386719 18.79052734 C-72.03690511 15.55714563 -76.66889158 14.88010609 -82.83203125 14.6171875 C-84.05329964 14.55484421 -84.05329964 14.55484421 -85.29924011 14.49124146 C-87.88666745 14.36102303 -90.47448254 14.24284486 -93.0625 14.125 C-94.82230487 14.03855572 -96.58207129 13.95132481 -98.34179688 13.86328125 C-102.64413922 13.64974098 -106.94686955 13.44699324 -111.25 13.25 C-107.86523418 18.06531113 -104.68742856 22.07240541 -99.875 25.5625 C-97.2265625 27.48828125 -97.2265625 27.48828125 -95.25 29.25 C-95.25 30.24 -95.25 31.23 -95.25 32.25 C-99.54 32.25 -103.83 32.25 -108.25 32.25 C-108.25 31.92 -108.25 31.59 -108.25 31.25 C-103.3 30.755 -103.3 30.755 -98.25 30.25 C-98.91386719 29.74210937 -99.57773438 29.23421875 -100.26171875 28.7109375 C-110.00785208 21.11322188 -110.00785208 21.11322188 -113.25 16.25 C-113.3671875 13.57421875 -113.3671875 13.57421875 -113.25 11.25 C-108.16379356 11.1502855 -103.07817008 11.07813719 -97.99121094 11.03027344 C-96.26487298 11.01029715 -94.53860147 10.98310628 -92.8125 10.94824219 C-78.21923292 10.66110615 -69.15828928 12.77350587 -57.0625 21.25 C-46.15708663 28.77826265 -46.15708663 28.77826265 -33.8125 33.5 C-32.57628906 33.83515625 -31.34007812 34.1703125 -30.06640625 34.515625 C-29.13699219 34.75796875 -28.20757812 35.0003125 -27.25 35.25 C-27.745 34.21875 -28.24 33.1875 -28.75 32.125 C-31.30013861 25.17679624 -31.80423018 17.2081062 -29.078125 10.265625 C-25.68469884 4.35336705 -22.11458842 -0.04505613 -15.4375 -2.0625 C-9.77542717 -3.24609714 -5.18316499 -2.79093499 0 0 Z " fill="#1E1E1E" transform="translate(248.25,194.75)"/>
<path d="M0 0 C0.99 0.99 0.99 0.99 2 2 C-3.69679417 0.77925839 -9.35094269 -0.57558646 -15 -2 C-27.65253605 -5.17260666 -39.40797429 -7.19928612 -52.5 -7.1875 C-53.44907227 -7.18669434 -54.39814453 -7.18588867 -55.37597656 -7.18505859 C-66.80558561 -7.08761458 -78.16856846 -6.02708419 -89.34375 -3.55859375 C-92.17765108 -2.96264102 -95.02387953 -2.47536832 -97.87915039 -1.99389648 C-103.66964378 -1.01554073 -109.38969048 0.04915874 -115.08544922 1.48583984 C-132.17257848 5.79341636 -149.40064312 7.59323675 -167 7 C-167 6.67 -167 6.34 -167 6 C-166.45638824 5.92340652 -165.91277649 5.84681305 -165.35269165 5.76789856 C-134.86146718 1.62586128 -134.86146718 1.62586128 -104.5625 -3.6875 C-103.57314453 -3.88456543 -102.58378906 -4.08163086 -101.56445312 -4.28466797 C-99.65591152 -4.66644029 -97.74753905 -5.04905937 -95.83935547 -5.43261719 C-63.20032804 -11.95480977 -31.29051222 -12.73451079 0 0 Z " fill="#181818" transform="translate(305,178)"/>
<path d="M0 0 C0 0.33 0 0.66 0 1 C-1.69189453 1.16435547 -1.69189453 1.16435547 -3.41796875 1.33203125 C-15.66588446 2.55485053 -27.82690354 4.18311993 -40 6 C-35.74280364 6.97793468 -31.50261543 7.3237637 -27.15625 7.61328125 C-25.5935302 7.72519924 -24.03086932 7.83794225 -22.46826172 7.95141602 C-21.25006744 8.03928879 -21.25006744 8.03928879 -20.00726318 8.12893677 C-6.1168898 9.14588698 7.45030888 10.49392884 21.0625 13.56542969 C33.52642626 16.36101799 45.94935868 17.1262133 58.6875 17.5625 C60.47317383 17.62727539 60.47317383 17.62727539 62.29492188 17.69335938 C65.19653034 17.79823679 68.09820635 17.90040196 71 18 C71 18.66 71 19.32 71 20 C40.16657277 20.58715999 40.16657277 20.58715999 27.11816406 17.47509766 C22.6105613 16.46405628 18.0532678 15.71097641 13.5 14.9375 C12.49163086 14.76597412 11.48326172 14.59444824 10.44433594 14.41772461 C0.1796635 12.74610958 -10.12411392 11.9041798 -20.49658203 11.23364258 C-23 11 -23 11 -25.8515625 10.49511719 C-29.37870341 9.94044584 -32.79834866 9.78682463 -36.3671875 9.68359375 C-37.04677521 9.66281265 -37.72636292 9.64203156 -38.42654419 9.62062073 C-40.57593666 9.5557637 -42.7254407 9.49654059 -44.875 9.4375 C-46.3411569 9.39425388 -47.80730294 9.35063775 -49.2734375 9.30664062 C-52.84884275 9.20014896 -56.42437037 9.09870591 -60 9 C-43.03736054 0.18809271 -18.62447532 -0.24795899 0 0 Z " fill="#131313" transform="translate(250,174)"/>
<path d="M0 0 C2.64 0 5.28 0 8 0 C8 11.22 8 22.44 8 34 C5.36 34 2.72 34 0 34 C0 22.78 0 11.56 0 0 Z " fill="#45ADBD" transform="translate(300,260)"/>
<path d="M0 0 C37.77443304 -0.18999754 37.77443304 -0.18999754 50.4375 0.4375 C51.2318042 0.47673584 52.0261084 0.51597168 52.84448242 0.55639648 C57.28062147 0.8112458 61.61535575 1.31255248 66 2 C65.25 6.75 65.25 6.75 63 9 C54.22258858 11.78266272 45.17844808 11.29902808 36.1328125 10.5234375 C28.49109942 9.92044376 20.84795796 9.66496482 13.1875 9.4375 C11.80142384 9.3941496 10.41535604 9.35053114 9.02929688 9.30664062 C5.68626996 9.20180703 2.34318509 9.09963877 -1 9 C-1 8.67 -1 8.34 -1 8 C0.00691895 8.00666183 0.00691895 8.00666183 1.03417969 8.01345825 C8.04245874 8.05782289 15.05069767 8.08792094 22.05908203 8.10986328 C24.67205425 8.11989948 27.28501531 8.13353136 29.89794922 8.15087891 C33.66116092 8.17523163 37.42422367 8.18650721 41.1875 8.1953125 C42.93015137 8.21079636 42.93015137 8.21079636 44.70800781 8.22659302 C50.80992071 8.22743058 56.1987334 7.97920458 62 6 C62.33 5.34 62.66 4.68 63 4 C61.89744873 4.01740234 60.79489746 4.03480469 59.65893555 4.05273438 C46.6499088 4.19129174 33.78142107 3.45780384 20.8125 2.5 C18.77934056 2.3548555 16.74613747 2.21032116 14.71289062 2.06640625 C9.80806432 1.71793706 4.90389497 1.36132951 0 1 C0 0.67 0 0.34 0 0 Z " fill="#1A1A1A" transform="translate(140,188)"/>
<path d="M0 0 C0.96091553 -0.00193359 1.92183105 -0.00386719 2.91186523 -0.00585938 C4.44822632 0.0009082 4.44822632 0.0009082 6.015625 0.0078125 C7.56842163 0.01071289 7.56842163 0.01071289 9.15258789 0.01367188 C16.89589542 0.05712275 24.55529356 0.3844961 32.265625 1.1328125 C32.265625 1.4628125 32.265625 1.7928125 32.265625 2.1328125 C31.1919165 2.13168457 30.11820801 2.13055664 29.01196289 2.12939453 C24.99141876 2.13309242 20.97205632 2.17612707 16.9519043 2.23046875 C15.21890931 2.24852918 13.48577152 2.25621547 11.75268555 2.25292969 C-2.06459821 2.22804664 -2.06459821 2.22804664 -13.734375 9.1328125 C-14.394375 9.1328125 -15.054375 9.1328125 -15.734375 9.1328125 C-15.734375 9.7928125 -15.734375 10.4528125 -15.734375 11.1328125 C-14.42597656 10.9884375 -13.11757813 10.8440625 -11.76953125 10.6953125 C11.84914265 8.38088873 35.56279223 8.94352635 59.265625 9.1328125 C59.265625 9.4628125 59.265625 9.7928125 59.265625 10.1328125 C58.42306152 10.15263184 57.58049805 10.17245117 56.71240234 10.19287109 C39.99250858 10.60210717 23.3453516 11.24839903 6.66308594 12.46777344 C-3.1539389 13.15971065 -12.89799451 13.35580349 -22.734375 13.1328125 C-19.41702973 9.62814901 -16.15164495 6.91399397 -12.046875 4.3828125 C-11.09425781 3.78984375 -10.14164062 3.196875 -9.16015625 2.5859375 C-5.74157173 0.53808977 -3.96686232 0.00517867 0 0 Z " fill="#242424" transform="translate(276.734375,217.8671875)"/>
<path d="M0 0 C0 0.33 0 0.66 0 1 C-1.69189453 1.16435547 -1.69189453 1.16435547 -3.41796875 1.33203125 C-15.66588446 2.55485053 -27.82690354 4.18311993 -40 6 C-35.70935068 7.00366066 -31.44833262 7.28009753 -27.0625 7.5 C-22.31501485 7.739369 -17.67988233 8.12114886 -13 9 C-13 9.33 -13 9.66 -13 10 C-28.67520851 10.22864972 -44.33752193 9.55473735 -60 9 C-43.03736054 0.18809271 -18.62447532 -0.24795899 0 0 Z " fill="#353535" transform="translate(250,174)"/>
<path d="M0 0 C0.66 0.33 1.32 0.66 2 1 C2 1.66 2 2.32 2 3 C1.21625 3.61875 0.4325 4.2375 -0.375 4.875 C-3.85796463 7.6945428 -4.83477718 9.53028534 -5.3359375 13.98828125 C-5.41790991 20.96413301 -5.18098952 25.34336712 -1 31 C-0.34 31.99 0.32 32.98 1 34 C-13.19 34 -27.38 34 -42 34 C-42 33.67 -42 33.34 -42 33 C-41.0212793 32.97494385 -40.04255859 32.9498877 -39.03417969 32.92407227 C-35.39619296 32.82976017 -31.75838657 32.72959797 -28.12060547 32.62768555 C-26.54740626 32.58442662 -24.97416283 32.54274526 -23.40087891 32.50268555 C-21.13690885 32.44476338 -18.87315949 32.38113286 -16.609375 32.31640625 C-15.55759064 32.29133751 -15.55759064 32.29133751 -14.48455811 32.26576233 C-11.19766179 32.16648978 -8.14857995 31.99187328 -5 31 C-5.28875 30.3709375 -5.5775 29.741875 -5.875 29.09375 C-8.59127725 22.83122189 -10.62341217 17.66188414 -8.26953125 10.90234375 C-6.21451686 6.41486335 -3.67329904 3.2651547 0 0 Z " fill="#4B4B4B" transform="translate(345,195)"/>
<path d="M0 0 C4.34004198 4.58804438 6.78523793 9.42285521 7.3125 15.75 C7 19 7 19 5 22 C4.90203125 21.13117188 4.8040625 20.26234375 4.703125 19.3671875 C3.69826214 10.42849914 3.69826214 10.42849914 -1 3 C-5.67031161 -0.47984002 -9.10484012 -1.61649118 -14.9296875 -1.3203125 C-20.26210454 -0.49529703 -23.4707315 3.1845746 -27 7 C-27.66 7.99 -28.32 8.98 -29 10 C-29.75 7.8125 -29.75 7.8125 -30 5 C-26.93121163 -0.24251346 -22.24149348 -2.91950217 -16.5625 -4.8125 C-9.76902477 -5.30958355 -5.30650938 -4.34168949 0 0 Z " fill="#2E2E2E" transform="translate(251,197)"/>
<path d="M0 0 C2.475 0.495 2.475 0.495 5 1 C5.66 3.31 6.32 5.62 7 8 C7.99 5.36 8.98 2.72 10 0 C11.32 0 12.64 0 14 0 C14 4.29 14 8.58 14 13 C13.01 13 12.02 13 11 13 C10.67 11.68 10.34 10.36 10 9 C9.34 10.32 8.68 11.64 8 13 C7.34 13 6.68 13 6 13 C5.34 11.35 4.68 9.7 4 8 C3.67 9.65 3.34 11.3 3 13 C2.01 13 1.02 13 0 13 C0 8.71 0 4.42 0 0 Z " fill="#49AFBF" transform="translate(212,314)"/>
<path d="M0 0 C2.475 0.495 2.475 0.495 5 1 C5.66 3.31 6.32 5.62 7 8 C7.99 5.36 8.98 2.72 10 0 C11.32 0 12.64 0 14 0 C14 4.29 14 8.58 14 13 C13.01 13 12.02 13 11 13 C10.67 11.68 10.34 10.36 10 9 C9.34 10.32 8.68 11.64 8 13 C7.34 13 6.68 13 6 13 C5.34 11.35 4.68 9.7 4 8 C3.67 9.65 3.34 11.3 3 13 C2.01 13 1.02 13 0 13 C0 8.71 0 4.42 0 0 Z " fill="#49AFBF" transform="translate(144,314)"/>
<path d="M0 0 C41.03341312 -0.20638953 41.03341312 -0.20638953 59 1 C58.34 1.99 57.68 2.98 57 4 C45.62741856 5.75745665 32.60985897 3.32199058 21.1875 2.5 C19.12698217 2.35505524 17.06643544 2.21052076 15.00585938 2.06640625 C10.00356057 1.71566513 5.0016853 1.35937964 0 1 C0 0.67 0 0.34 0 0 Z " fill="#252525" transform="translate(140,188)"/>
<path d="M0 0 C0.96091553 -0.00193359 1.92183105 -0.00386719 2.91186523 -0.00585938 C4.44822632 0.0009082 4.44822632 0.0009082 6.015625 0.0078125 C7.56842163 0.01071289 7.56842163 0.01071289 9.15258789 0.01367188 C16.89589542 0.05712275 24.55529356 0.3844961 32.265625 1.1328125 C32.265625 1.4628125 32.265625 1.7928125 32.265625 2.1328125 C30.67862793 2.11541016 30.67862793 2.11541016 29.05957031 2.09765625 C25.07803864 2.06475764 21.09816046 2.08522474 17.11669922 2.12060547 C15.40414181 2.12864263 13.69145426 2.12281774 11.97900391 2.10205078 C1.31597858 1.98364197 -5.84903211 2.41656004 -14.39550781 9.3203125 C-16.62874866 11.0509576 -17.98107525 11.72420686 -20.734375 12.1328125 C-15.31068091 6.18424479 -8.30953687 0.01084796 0 0 Z " fill="#0F0F0F" transform="translate(276.734375,217.8671875)"/>
<path d="M0 0 C4.95 0 9.9 0 15 0 C15 0.66 15 1.32 15 2 C10.71 2 6.42 2 2 2 C6.0393216 7.95268446 10.20220091 12.00543518 16.0234375 16.23828125 C16.67570312 16.81964844 17.32796875 17.40101563 18 18 C18 18.99 18 19.98 18 21 C13.71 21 9.42 21 5 21 C5 20.67 5 20.34 5 20 C8.3 19.67 11.6 19.34 15 19 C14.33613281 18.49210937 13.67226562 17.98421875 12.98828125 17.4609375 C3.24214792 9.86322188 3.24214792 9.86322188 0 5 C0 3.35 0 1.7 0 0 Z " fill="#1A1A1A" transform="translate(135,206)"/>
<path d="M0 0 C6.93359375 -0.09765625 6.93359375 -0.09765625 9 0 C10 1 10 1 10.125 4 C10 7 10 7 9 8 C7.00041636 8.04080783 4.99954746 8.04254356 3 8 C3 9.65 3 11.3 3 13 C2.01 13 1.02 13 0 13 C0 8.71 0 4.42 0 0 Z " fill="#44ADBD" transform="translate(163,314)"/>
<path d="M0 0 C1.258125 -0.04125 2.51625 -0.0825 3.8125 -0.125 C4.52019531 -0.14820313 5.22789062 -0.17140625 5.95703125 -0.1953125 C8 0 8 0 11 2 C11.3125 4.5 11.3125 4.5 11 7 C9 9 9 9 6.8359375 9.1953125 C4.55729167 9.13020833 2.27864583 9.06510417 0 9 C0 6.03 0 3.06 0 0 Z " fill="#F9FCFD" transform="translate(259,279)"/>
<path d="M0 0 C9.6760591 -0.86051909 9.6760591 -0.86051909 13.5 2.25 C18.55978566 7.81576423 18.57833911 12.87077762 18.39453125 20.20703125 C17.8656351 25.29176555 16.28131914 29.08230381 13 33 C12.01 33.495 12.01 33.495 11 34 C11.28875 33.29875 11.5775 32.5975 11.875 31.875 C12.24625 30.92625 12.6175 29.9775 13 29 C13.556875 27.7315625 13.556875 27.7315625 14.125 26.4375 C15.74597932 20.06936695 15.93425736 13.58032985 13.6875 7.375 C12.0559648 4.77948752 12.0559648 4.77948752 9 3 C6.49103314 2.54398739 6.49103314 2.54398739 3.8125 2.375 C2.91144531 2.30023438 2.01039063 2.22546875 1.08203125 2.1484375 C0.39496094 2.09945312 -0.29210937 2.05046875 -1 2 C-0.67 1.34 -0.34 0.68 0 0 Z " fill="#1B1B1B" transform="translate(347,195)"/>
<path d="M0 0 C1.32 0.33 2.64 0.66 4 1 C5.265625 3.72265625 5.265625 3.72265625 6.25 7.0625 C6.58515625 8.16722656 6.9203125 9.27195312 7.265625 10.41015625 C7.50796875 11.26480469 7.7503125 12.11945313 8 13 C6.68 12.67 5.36 12.34 4 12 C4 11.34 4 10.68 4 10 C2.35 10 0.7 10 -1 10 C-1.33 10.99 -1.66 11.98 -2 13 C-2.99 12.67 -3.98 12.34 -5 12 C-3.35 8.04 -1.7 4.08 0 0 Z " fill="#3DAABA" transform="translate(235,314)"/>
<path d="M0 0 C1.859375 0.19140625 1.859375 0.19140625 4 1 C5.265625 3.21484375 5.265625 3.21484375 6.25 5.9375 C6.58515625 6.83339844 6.9203125 7.72929687 7.265625 8.65234375 C8 11 8 11 8 13 C7.01 13 6.02 13 5 13 C4.67 12.34 4.34 11.68 4 11 C1.47266765 10.34444881 1.47266765 10.34444881 -1 10 C-1 10.99 -1 11.98 -1 13 C-1.99 13 -2.98 13 -4 13 C-3.40895235 8.15340923 -2.02055843 4.39251833 0 0 Z " fill="#3EAABB" transform="translate(343,314)"/>
<path d="M0 0 C-0.33 0.66 -0.66 1.32 -1 2 C-3.22265625 2.59765625 -3.22265625 2.59765625 -6.0625 3.0625 C-7.44115234 3.29646484 -7.44115234 3.29646484 -8.84765625 3.53515625 C-15.82944856 4.56468944 -22.4470092 5.13716521 -29.5 5.0625 C-30.32242188 5.05798828 -31.14484375 5.05347656 -31.9921875 5.04882812 C-33.99482396 5.03718489 -35.99742227 5.01925556 -38 5 C-38 4.67 -38 4.34 -38 4 C-34.0358831 3.42222775 -30.07064413 2.85293368 -26.10424805 2.29101562 C-24.75887325 2.09925588 -23.4138096 1.90529835 -22.0690918 1.70898438 C-14.65438057 0.62807444 -7.49744672 -0.26335707 0 0 Z " fill="#1E1E1E" transform="translate(176,180)"/>
<path d="M0 0 C1.134375 0.020625 2.26875 0.04125 3.4375 0.0625 C3.7675 1.3825 4.0975 2.7025 4.4375 4.0625 C2.1275 3.4025 -0.1825 2.7425 -2.5625 2.0625 C-1.05586217 5.07577566 1.46916411 5.67306618 4.4375 7.0625 C4.480221 8.72861905 4.47813832 10.39632885 4.4375 12.0625 C3.4375 13.0625 3.4375 13.0625 -0.125 13.125 C-1.259375 13.104375 -2.39375 13.08375 -3.5625 13.0625 C-4.2225 11.7425 -4.8825 10.4225 -5.5625 9.0625 C-3.17685923 9.63834432 -0.89567216 10.28477595 1.4375 11.0625 C1.4375 10.0725 1.4375 9.0825 1.4375 8.0625 C-0.5425 7.4025 -2.5225 6.7425 -4.5625 6.0625 C-4.605221 4.39638095 -4.60313832 2.72867115 -4.5625 1.0625 C-3.5625 0.0625 -3.5625 0.0625 0 0 Z " fill="#42ACBC" transform="translate(126.5625,313.9375)"/>
<path d="M0 0 C1.47906892 -0.02689216 2.95827483 -0.04634621 4.4375 -0.0625 C5.26121094 -0.07410156 6.08492188 -0.08570313 6.93359375 -0.09765625 C9 0 9 0 10 1 C10.04080783 2.99958364 10.04254356 5.00045254 10 7 C6.78548731 8.60725635 3.56387464 8.05748185 0 8 C0 5.36 0 2.72 0 0 Z " fill="#FBFDFD" transform="translate(259,266)"/>
<path d="M0 0 C1.4540625 0.0309375 1.4540625 0.0309375 2.9375 0.0625 C3.5975 1.3825 4.2575 2.7025 4.9375 4.0625 C3.9475 4.0625 2.9575 4.0625 1.9375 4.0625 C1.9375 3.4025 1.9375 2.7425 1.9375 2.0625 C0.6175 2.0625 -0.7025 2.0625 -2.0625 2.0625 C0.10437491 4.33771866 2.39370509 6.22044162 4.9375 8.0625 C4.0625 11.9375 4.0625 11.9375 2.9375 13.0625 C0.93791636 13.10330783 -1.06295254 13.10504356 -3.0625 13.0625 C-3.7225 11.7425 -4.3825 10.4225 -5.0625 9.0625 C-4.0725 9.0625 -3.0825 9.0625 -2.0625 9.0625 C-2.0625 9.7225 -2.0625 10.3825 -2.0625 11.0625 C-0.7425 11.0625 0.5775 11.0625 1.9375 11.0625 C1.9375 10.0725 1.9375 9.0825 1.9375 8.0625 C1.15375 7.93875 0.37 7.815 -0.4375 7.6875 C-3.0625 7.0625 -3.0625 7.0625 -5.0625 5.0625 C-4.45789299 1.07209375 -4.2025713 0.08576676 0 0 Z " fill="#3FABBB" transform="translate(260.0625,313.9375)"/>
<path d="M0 0 C2.97 0 5.94 0 9 0 C9 0.66 9 1.32 9 2 C7.02 2 5.04 2 3 2 C3 2.99 3 3.98 3 5 C4.65 5 6.3 5 8 5 C8 5.66 8 6.32 8 7 C6.35 7 4.7 7 3 7 C3 8.32 3 9.64 3 11 C4.98 11 6.96 11 9 11 C9 11.66 9 12.32 9 13 C6.03 13 3.06 13 0 13 C0 8.71 0 4.42 0 0 Z " fill="#36A7B8" transform="translate(370,314)"/>
<path d="M0 0 C2.97 0 5.94 0 9 0 C9 0.66 9 1.32 9 2 C7.02 2 5.04 2 3 2 C3 2.99 3 3.98 3 5 C4.65 5 6.3 5 8 5 C8 5.66 8 6.32 8 7 C6.35 7 4.7 7 3 7 C3 8.32 3 9.64 3 11 C4.98 11 6.96 11 9 11 C9 11.66 9 12.32 9 13 C6.03 13 3.06 13 0 13 C0 8.71 0 4.42 0 0 Z " fill="#37A7B8" transform="translate(277,314)"/>
<path d="M0 0 C2.97 0 5.94 0 9 0 C9 0.66 9 1.32 9 2 C7.02 2 5.04 2 3 2 C3 2.99 3 3.98 3 5 C4.65 5 6.3 5 8 5 C8 5.66 8 6.32 8 7 C6.35 7 4.7 7 3 7 C3 8.32 3 9.64 3 11 C4.98 11 6.96 11 9 11 C9 11.66 9 12.32 9 13 C6.03 13 3.06 13 0 13 C0 8.71 0 4.42 0 0 Z " fill="#3EAABB" transform="translate(191,314)"/>
<path d="M0 0 C2.97 0 5.94 0 9 0 C9 0.66 9 1.32 9 2 C7.02 2 5.04 2 3 2 C3 2.99 3 3.98 3 5 C4.98 5 6.96 5 9 5 C9 5.99 9 6.98 9 8 C7.02 8 5.04 8 3 8 C3 9.65 3 11.3 3 13 C2.01 13 1.02 13 0 13 C0 8.71 0 4.42 0 0 Z " fill="#4EB1C0" transform="translate(303,314)"/>
<path d="M0 0 C1.670625 0.061875 1.670625 0.061875 3.375 0.125 C3.705 1.445 4.035 2.765 4.375 4.125 C1.405 3.63 1.405 3.63 -1.625 3.125 C-1.625 5.435 -1.625 7.745 -1.625 10.125 C0.355 9.795 2.335 9.465 4.375 9.125 C3.715 10.445 3.055 11.765 2.375 13.125 C-0.5 13.3125 -0.5 13.3125 -3.625 13.125 C-6.33732939 9.05650591 -5.93199887 6.96023216 -5.625 2.125 C-3.625 0.125 -3.625 0.125 0 0 Z " fill="#36A7B8" transform="translate(360.625,313.875)"/>
<path d="M0 0 C0.66 1.32 1.32 2.64 2 4 C1.01 4 0.02 4 -1 4 C-1 3.34 -1 2.68 -1 2 C-2.32 2.33 -3.64 2.66 -5 3 C-5 5.31 -5 7.62 -5 10 C-1.535 9.505 -1.535 9.505 2 9 C1.34 10.32 0.68 11.64 0 13 C-2.8125 13.25 -2.8125 13.25 -6 13 C-8.59814888 10.74827097 -8.95716454 9.34982295 -9.375 5.9375 C-9 3 -9 3 -7.875 1.125 C-5.21965017 -0.4682099 -3.03210482 -0.20214032 0 0 Z " fill="#38A7B8" transform="translate(333,314)"/>
<path d="M0 0 C2.97 0 5.94 0 9 0 C9 0.66 9 1.32 9 2 C7.02 2 5.04 2 3 2 C3 2.99 3 3.98 3 5 C4.65 5 6.3 5 8 5 C8 5.99 8 6.98 8 8 C6.35 8 4.7 8 3 8 C3 9.65 3 11.3 3 13 C2.01 13 1.02 13 0 13 C0 8.71 0 4.42 0 0 Z " fill="#43ACBC" transform="translate(290,314)"/>
<path d="M0 0 C3.62498334 -0.02893932 7.24993713 -0.04677792 10.875 -0.0625 C12.42380859 -0.07506836 12.42380859 -0.07506836 14.00390625 -0.08789062 C14.99003906 -0.09111328 15.97617188 -0.09433594 16.9921875 -0.09765625 C18.35899658 -0.10551147 18.35899658 -0.10551147 19.75341797 -0.11352539 C22 0 22 0 24 1 C24 1.66 24 2.32 24 3 C7.1070615 3.18451025 7.1070615 3.18451025 0 2 C0 1.34 0 0.68 0 0 Z " fill="#373737" transform="translate(150,206)"/>
<path d="M0 0 C1.28003906 -0.00193359 1.28003906 -0.00193359 2.5859375 -0.00390625 C3.91238281 0.00189453 3.91238281 0.00189453 5.265625 0.0078125 C6.13445312 0.00394531 7.00328125 0.00007812 7.8984375 -0.00390625 C13.19458748 0.00404593 18.27506017 0.36500882 23.515625 1.1328125 C23.515625 1.4628125 23.515625 1.7928125 23.515625 2.1328125 C12.16132632 3.08324707 0.90486117 3.24314956 -10.484375 3.1328125 C-7.3684193 0.0168568 -4.26898754 0.00628585 0 0 Z " fill="#353535" transform="translate(264.484375,227.8671875)"/>
<path d="M0 0 C2.34914492 2.34914492 2.73140357 3.95679446 3.625 7.125 C3.88539063 8.03507812 4.14578125 8.94515625 4.4140625 9.8828125 C4.70410156 10.93082031 4.70410156 10.93082031 5 12 C2.36 12 -0.28 12 -3 12 C-2.49202991 7.6822542 -1.80317221 3.96697886 0 0 Z " fill="#EBF6F8" transform="translate(344,269)"/>
<path d="M0 0 C3.45854519 3.45854519 4 7.21904213 4 12 C1.69 12 -0.62 12 -3 12 C-2.49202991 7.6822542 -1.80317221 3.96697886 0 0 Z " fill="#ECF6F8" transform="translate(155,269)"/>
<path d="M0 0 C10.40565618 2.2306736 20.17496941 4.83076963 30 9 C25.97102891 10.34299036 23.29079823 9.00528886 19.4375 7.6875 C13.3446548 5.68389129 7.34575609 4.02203283 1 3 C0.67 2.01 0.34 1.02 0 0 Z " fill="#3B3B3B" transform="translate(277,170)"/>
<path d="M0 0 C0.99 0 1.98 0 3 0 C3 3.63 3 7.26 3 11 C4.98 11 6.96 11 9 11 C9 11.66 9 12.32 9 13 C6.03 13 3.06 13 0 13 C0 8.71 0 4.42 0 0 Z " fill="#43ACBC" transform="translate(178,314)"/>
<path d="M0 0 C0 0.66 0 1.32 0 2 C-9.57 1.34 -19.14 0.68 -29 0 C-29 -0.33 -29 -0.66 -29 -1 C-19.71256549 -2.42043116 -9.09334387 -2.69601652 0 0 Z " fill="#333333" transform="translate(256,185)"/>
<path d="M0 0 C5.14764711 4.59114472 7.73360311 8.80323731 8.3125 15.75 C8 19 8 19 6 22 C5.85304687 20.69675781 5.85304687 20.69675781 5.703125 19.3671875 C4.67395308 11.43546595 3.69832695 6.69832695 -2 1 C-1.34 0.67 -0.68 0.34 0 0 Z " fill="#616161" transform="translate(250,197)"/>
<path d="M0 0 C0.66 0.33 1.32 0.66 2 1 C2.59084103 9.49498106 2.49651807 16.13768047 -3 23 C-3.66 23.33 -4.32 23.66 -5 24 C-4.71125 23.29875 -4.4225 22.5975 -4.125 21.875 C-2.03570583 16.53569268 -0.72728301 11.87895581 -0.375 6.125 C-0.30023438 4.97257813 -0.22546875 3.82015625 -0.1484375 2.6328125 C-0.09945313 1.76398438 -0.05046875 0.89515625 0 0 Z " fill="#262626" transform="translate(363,205)"/>
<path d="M0 0 C-4.70973649 1.76615118 -9.03083364 2.48594831 -14 3 C-14 2.34 -14 1.68 -14 1 C-15.32 0.67 -16.64 0.34 -18 0 C-15.75265248 -0.39058179 -13.50195579 -0.76192958 -11.25 -1.125 C-9.99703125 -1.33382812 -8.7440625 -1.54265625 -7.453125 -1.7578125 C-4.07025291 -1.99507276 -2.74374672 -1.8707364 0 0 Z " fill="#292929" transform="translate(335,191)"/>
<path d="M0 0 C0.99 0 1.98 0 3 0 C3 4.29 3 8.58 3 13 C2.01 13 1.02 13 0 13 C0 8.71 0 4.42 0 0 Z " fill="#3EAABA" transform="translate(136,314)"/>
<path d="M0 0 C0.99 0 1.98 0 3 0 C3 4.29 3 8.58 3 13 C2.01 13 1.02 13 0 13 C0 8.71 0 4.42 0 0 Z " fill="#47AEBE" transform="translate(247,314)"/>
<path d="M0 0 C0 0.33 0 0.66 0 1 C-3.41359256 1.56237552 -6.83105087 2.09625033 -10.25 2.625 C-11.21808594 2.78484375 -12.18617188 2.9446875 -13.18359375 3.109375 C-14.58544922 3.32207031 -14.58544922 3.32207031 -16.015625 3.5390625 C-16.87446289 3.67521973 -17.73330078 3.81137695 -18.61816406 3.95166016 C-21.32234493 4.00654206 -22.71527352 3.39211067 -25 2 C-22.33559769 1.46409181 -19.66963352 0.94610738 -17 0.4375 C-16.25621094 0.28603516 -15.51242188 0.13457031 -14.74609375 -0.02148438 C-9.51697004 -0.99910316 -5.24669329 -0.90028487 0 0 Z " fill="#3C3C3C" transform="translate(220,173)"/>
<path d="M0 0 C4.95 0 9.9 0 15 0 C15 0.66 15 1.32 15 2 C10.71 2 6.42 2 2 2 C2.33 2.99 2.66 3.98 3 5 C2.01 5 1.02 5 0 5 C0 3.35 0 1.7 0 0 Z " fill="#111111" transform="translate(135,206)"/>
<path d="M0 0 C0.78503906 0.20496094 1.57007813 0.40992188 2.37890625 0.62109375 C7.91017745 2.03954244 13.32370402 3.35496637 19 4 C19 4.33 19 4.66 19 5 C5.3667426 5.55353075 5.3667426 5.55353075 -1 2 C-0.67 1.34 -0.34 0.68 0 0 Z " fill="#3F3F3F" transform="translate(205,226)"/>
<path d="M0 0 C1.32 0.33 2.64 0.66 4 1 C4.625 3.375 4.625 3.375 5 6 C4.34 6.66 3.68 7.32 3 8 C2.01 8 1.02 8 0 8 C-1.125 6.25 -1.125 6.25 -2 4 C-1.125 1.75 -1.125 1.75 0 0 Z " fill="#69BDCA" transform="translate(235,314)"/>
<path d="M0 0 C0 1.32 0 2.64 0 4 C-4.95 4 -9.9 4 -15 4 C-9.9571448 1.4785724 -5.66021426 0 0 0 Z " fill="#131313" transform="translate(205,179)"/>
<path d="M0 0 C1.32 0 2.64 0 4 0 C4 4.29 4 8.58 4 13 C3.34 13 2.68 13 2 13 C1.93941406 12.39671875 1.87882813 11.7934375 1.81640625 11.171875 C1.69072266 9.97304688 1.69072266 9.97304688 1.5625 8.75 C1.48128906 7.96109375 1.40007812 7.1721875 1.31640625 6.359375 C1.02365007 4.17635361 0.57935581 2.1226818 0 0 Z " fill="#2FA4B5" transform="translate(222,314)"/>
<path d="M0 0 C1.32 0 2.64 0 4 0 C4 4.29 4 8.58 4 13 C3.34 13 2.68 13 2 13 C1.93941406 12.39671875 1.87882813 11.7934375 1.81640625 11.171875 C1.69072266 9.97304688 1.69072266 9.97304688 1.5625 8.75 C1.48128906 7.96109375 1.40007812 7.1721875 1.31640625 6.359375 C1.02365007 4.17635361 0.57935581 2.1226818 0 0 Z " fill="#2FA4B5" transform="translate(154,314)"/>
<path d="M0 0 C1.134375 0.020625 2.26875 0.04125 3.4375 0.0625 C3.7675 1.3825 4.0975 2.7025 4.4375 4.0625 C1.4675 3.5675 1.4675 3.5675 -1.5625 3.0625 C-1.8925 5.0425 -2.2225 7.0225 -2.5625 9.0625 C-2.8925 9.0625 -3.2225 9.0625 -3.5625 9.0625 C-4.15982819 6.29985711 -4.5625 3.90217231 -4.5625 1.0625 C-3.5625 0.0625 -3.5625 0.0625 0 0 Z " fill="#4BB0BF" transform="translate(360.5625,313.9375)"/>
<path d="M0 0 C0.66 0.33 1.32 0.66 2 1 C2 1.66 2 2.32 2 3 C0.8553125 3.8971875 0.8553125 3.8971875 -0.3125 4.8125 C-3.03609725 7.02938148 -4.25532841 9.00913442 -6 12 C-6.66 12 -7.32 12 -8 12 C-6.64994369 6.32976351 -4.1842771 3.82042691 0 0 Z " fill="#2F2F2F" transform="translate(345,195)"/>
<path d="M0 0 C4.95769796 -0.29162929 8.02806853 -0.12940055 12 3 C12 3.66 12 4.32 12 5 C7.61667943 4.17812739 3.32059823 3.09845718 -1 2 C-0.67 1.34 -0.34 0.68 0 0 Z " fill="#0E0E0E" transform="translate(238,193)"/>
<path d="M0 0 C0.66 1.32 1.32 2.64 2 4 C1.01 4 0.02 4 -1 4 C-1 3.34 -1 2.68 -1 2 C-2.98 2.66 -4.96 3.32 -7 4 C-7.33 5.65 -7.66 7.3 -8 9 C-8.33 9 -8.66 9 -9 9 C-9.36 3.6 -9.36 3.6 -7.875 1.125 C-5.21965017 -0.4682099 -3.03210482 -0.20214032 0 0 Z " fill="#45ADBD" transform="translate(333,314)"/>
<path d="M0 0 C1.28132813 0.10183594 2.56265625 0.20367187 3.8828125 0.30859375 C4.87023437 0.39238281 5.85765625 0.47617188 6.875 0.5625 C6.875 0.8925 6.875 1.2225 6.875 1.5625 C2.03525288 2.73577203 -2.85756121 3.4927313 -7.5625 1.5625 C-8.078125 1.2325 -8.59375 0.9025 -9.125 0.5625 C-6.07230154 -0.96384923 -3.36654311 -0.27544444 0 0 Z " fill="#3A3A3A" transform="translate(288.125,190.4375)"/>
<path d="M0 0 C1.17046875 0.19464844 2.3409375 0.38929688 3.546875 0.58984375 C4.43890625 0.74582031 5.3309375 0.90179688 6.25 1.0625 C6.25 1.3925 6.25 1.7225 6.25 2.0625 C-0.02 2.0625 -6.29 2.0625 -12.75 2.0625 C-8.83576465 -1.85173535 -5.20112558 -0.88419135 0 0 Z " fill="#7B7B7B" transform="translate(266.75,228.9375)"/>
<path d="M0 0 C-0.33 0.99 -0.66 1.98 -1 3 C-4.3125 3.6875 -4.3125 3.6875 -8 4 C-9.9375 2.5625 -9.9375 2.5625 -11 1 C-7.26513121 0.4254048 -3.78706732 0 0 0 Z " fill="#171717" transform="translate(183,178)"/>
<path d="M0 0 C1.32 0.33 2.64 0.66 4 1 C4 2.98 4 4.96 4 7 C2.68 7.33 1.36 7.66 0 8 C0.185625 7.236875 0.37125 6.47375 0.5625 5.6875 C1.22819173 2.91032625 1.22819173 2.91032625 0 0 Z " fill="#3CA9BA" transform="translate(169,314)"/>
<path d="M0 0 C3.3 0 6.6 0 10 0 C10 1.32 10 2.64 10 4 C9.34 4 8.68 4 8 4 C8 3.34 8 2.68 8 2 C5.69 2 3.38 2 1 2 C0.67 1.34 0.34 0.68 0 0 Z " fill="#121212" transform="translate(196,190)"/>
<path d="M0 0 C4.83256305 0.41421969 6.82679218 2.46413986 10 6 C5.16743695 5.58578031 3.17320782 3.53586014 0 0 Z " fill="#161616" transform="translate(195,221)"/>
<path d="M0 0 C0.33 0 0.66 0 1 0 C1.33 4.62 1.66 9.24 2 14 C1.34 14 0.68 14 0 14 C-1.03115279 10.73086376 -0.9638984 8.13958652 -0.5625 4.75 C-0.46066406 3.85796875 -0.35882813 2.9659375 -0.25390625 2.046875 C-0.17011719 1.37140625 -0.08632813 0.6959375 0 0 Z " fill="#3C3C3C" transform="translate(338,208)"/>
<path d="M0 0 C2 1.3125 2 1.3125 4 3 C4 3.99 4 4.98 4 6 C2.35 5.67 0.7 5.34 -1 5 C-0.67 3.35 -0.34 1.7 0 0 Z " fill="#8BCCD6" transform="translate(342,316)"/>
<path d="M0 0 C2.475 0.495 2.475 0.495 5 1 C4.67 1.99 4.34 2.98 4 4 C2.68 4 1.36 4 0 4 C0 2.68 0 1.36 0 0 Z " fill="#ECF7F8" transform="translate(166,316)"/>
<path d="M0 0 C0.66 1.32 1.32 2.64 2 4 C0.68 5.65 -0.64 7.3 -2 9 C-2.6875 6.75 -2.6875 6.75 -3 4 C-1.5625 1.6875 -1.5625 1.6875 0 0 Z " fill="#818181" transform="translate(224,198)"/>
</svg>
